<?xml version="1.0" encoding="utf-8"?>
<!-- Generator: Adobe Illustrator 17.0.0, SVG Export Plug-In . SVG Version: 6.00 Build 0)  -->
<!DOCTYPE svg PUBLIC "-//W3C//DTD SVG 1.1//EN" "http://www.w3.org/Graphics/SVG/1.1/DTD/svg11.dtd">
<svg version="1.1" id="Layer_1" xmlns="http://www.w3.org/2000/svg" xmlns:xlink="http://www.w3.org/1999/xlink" x="0px" y="0px"
	 width="233.67px" height="233.67px" viewBox="0 0 233.67 233.67" enable-background="new 0 0 233.67 233.67" xml:space="preserve">
<circle fill="#C23B2C" cx="117.344" cy="117" r="113.884"/>
<path fill="none" stroke="#FFFFFF" stroke-width="3" stroke-miterlimit="10" d="M84.273,84.641v32.574l-22.201,21.534
	c0,0-27.903,0-32.877,0s-7.158-54.107,0-54.107C38.657,84.641,84.273,84.641,84.273,84.641z"/>
<circle fill="none" stroke="#FFFFFF" stroke-width="3" stroke-miterlimit="10" cx="77.261" cy="91.574" r="2.972"/>
<circle fill="none" stroke="#FFFFFF" stroke-width="3" stroke-miterlimit="10" cx="77.261" cy="115.181" r="2.972"/>
<path fill="none" stroke="#FFFFFF" stroke-width="3" stroke-miterlimit="10" d="M55.044,90.282c-11.902,0-13.199,0-16.852,0
	c-1.183,0-5.594,1.392-2.149,10.007c3.445,8.615,2.158,15.512,0.268,20.495c-1.89,4.983,1.077,10.078,1.881,10.078
	c2.475,0,11.313,0,16.852,0S66.946,90.282,55.044,90.282z"/>
<path fill="none" stroke="#FFFFFF" stroke-width="3" stroke-miterlimit="10" d="M29.195,84.641"/>
<polygon fill="none" stroke="#FFFFFF" stroke-width="3" stroke-miterlimit="10" points="204.071,106.83 210.079,109.605 
	208.972,105.357 208.959,105.361 202.73,85.854 84.272,85.854 84.273,117.215 63.268,137.588 63.268,146.392 66.987,149.359 
	67.639,146.819 68.098,145.034 68.845,144.824 70.151,146.111 72.011,147.943 72.664,145.403 73.121,143.623 73.873,143.412 
	75.176,144.695 77.035,146.527 77.688,143.987 78.144,142.212 78.9,141.999 80.2,143.279 82.06,145.111 82.712,142.571 
	83.167,140.8 83.928,140.587 85.224,141.863 87.084,143.695 87.736,141.155 88.19,139.389 88.956,139.174 90.249,140.447 
	92.108,142.278 92.761,139.739 93.213,137.978 93.984,137.761 95.273,139.031 97.132,140.862 97.785,138.323 98.236,136.566 
	99.012,136.349 100.297,137.615 102.157,139.446 102.809,136.907 103.259,135.155 104.039,134.936 105.321,136.199 107.181,138.03 
	107.834,135.491 108.283,133.744 109.067,133.523 110.346,134.783 112.205,136.614 112.858,134.075 113.306,132.332 
	114.095,132.111 115.37,133.367 117.229,135.198 117.882,132.659 118.329,130.921 119.123,130.698 120.394,131.95 122.254,133.782 
	122.906,131.242 123.352,129.51 124.15,129.285 125.419,130.534 127.278,132.366 127.931,129.826 128.375,128.098 128.891,127.953 
	130.443,129.482 132.302,131.314 132.955,128.774 133.499,126.659 133.918,126.541 135.467,128.066 137.327,129.898 
	137.979,127.358 138.522,125.247 138.946,125.128 140.491,126.65 142.351,128.481 143.003,125.942 143.545,123.836 143.974,123.715 
	145.516,125.234 147.375,127.065 148.028,124.526 148.568,122.425 149.002,122.303 150.54,123.818 152.399,125.649 153.052,123.11 
	153.591,121.013 154.03,120.89 155.564,122.402 157.424,124.233 158.076,121.694 158.614,119.602 159.057,119.478 160.588,120.986 
	162.448,122.817 163.101,120.278 163.637,118.191 164.085,118.065 165.613,119.57 167.472,121.401 168.125,118.862 168.66,116.78 
	169.113,116.652 170.637,118.153 172.497,119.985 173.149,117.445 173.683,115.368 174.141,115.24 175.661,116.737 177.521,118.569 
	178.173,116.029 178.706,113.957 179.168,113.827 180.686,115.321 182.545,117.153 183.198,114.613 183.729,112.546 
	184.196,112.414 185.71,113.905 187.569,115.737 188.222,113.197 188.752,111.134 189.224,111.002 190.734,112.489 192.594,114.321 
	193.246,111.781 193.775,109.723 194.252,109.589 195.758,111.073 197.618,112.905 198.271,110.365 198.798,108.312 
	199.279,108.176 200.783,109.657 202.642,111.488 203.295,108.949 203.821,106.9 "/>
<text transform="matrix(0.9646 -0.2638 0.2638 0.9646 101.0901 161.5023)" fill="#FFFFFF" font-family="'HelveticaNeue-CondensedBlack'" font-size="19.3754">REVEAL-CK</text>
</svg>
