<?xml version="1.0" encoding="utf-8"?>
<!-- Generator: Adobe Illustrator 17.0.0, SVG Export Plug-In . SVG Version: 6.00 Build 0)  -->
<!DOCTYPE svg PUBLIC "-//W3C//DTD SVG 1.1//EN" "http://www.w3.org/Graphics/SVG/1.1/DTD/svg11.dtd">
<svg version="1.1" id="Layer_1" xmlns="http://www.w3.org/2000/svg" xmlns:xlink="http://www.w3.org/1999/xlink" x="0px" y="0px"
	 width="233.67px" height="233.67px" viewBox="0 0 233.67 233.67" enable-background="new 0 0 233.67 233.67" xml:space="preserve">
<circle fill="#2581BB" cx="116.837" cy="116.844" r="114.516"/>
<path fill="none" stroke="#FFFFFF" stroke-width="2" stroke-miterlimit="10" d="M58.787,191.676c0,0.804,0.652,1.455,1.455,1.455
	h78.944c0.804,0,1.455-0.652,1.455-1.455v-29.831c0-0.804-0.652-1.455-1.455-1.455H60.242c-0.804,0-1.455,0.652-1.455,1.455V191.676
	z"/>
<polygon fill="none" stroke="#FFFFFF" stroke-width="2" stroke-miterlimit="10" points="73.965,139.065 101.322,139.065 
	109.441,147.261 131.502,147.261 138.209,160.068 58.786,160.068 58.786,147.261 "/>
<polygon fill="none" stroke="#FFFFFF" stroke-width="2" stroke-miterlimit="10" points="190.273,61.285 190.273,72.373 
	185.029,74.171 185.029,58.887 "/>
<polygon fill="none" stroke="#FFFFFF" stroke-width="2" stroke-miterlimit="10" points="176.444,55.154 176.444,78.268 
	185.029,74.966 185.029,58.126 "/>
<rect x="158.799" y="53.978" fill="none" stroke="#FFFFFF" stroke-width="2" stroke-miterlimit="10" width="17.644" height="25.466"/>
<rect x="151.919" y="56.343" fill="none" stroke="#FFFFFF" stroke-width="2" stroke-miterlimit="10" width="6.88" height="21.646"/>
<rect x="138.095" y="50.522" fill="none" stroke="#FFFFFF" stroke-width="2" stroke-miterlimit="10" width="13.642" height="33.651"/>
<path fill="none" stroke="#FFFFFF" stroke-width="2" stroke-miterlimit="10" d="M69.628,49.794c0.269,0,0.8,0,0.8,0h67.667v39.472
	c0,0,0,0.546-9.277,0.546c-12.187,4.366-8.442,14.607-8.442,14.607l-4.473,0.308l-0.91,1.819c0,0-8.731,1.455-9.459,6.548
	c-0.728,5.093-3.074,25.648-3.074,25.648H74.43c0,0,9.641-41.837,9.277-45.657s-4.184-4.547-4.184-4.547s-9.34,0.186-9.895,0.186
	c-6.47,0-11.714-8.366-11.714-19.24C57.913,58.61,63.158,49.794,69.628,49.794z"/>
<polygon fill="none" stroke="#FFFFFF" stroke-width="2" stroke-miterlimit="10" points="196.422,65.256 196.422,67.893 
	190.273,71.077 190.273,62.527 "/>
<path fill="none" stroke="#FFFFFF" stroke-width="2" stroke-miterlimit="10" d="M74.987,78.747c0,0.468,0.38,0.847,0.849,0.847
	h29.94c0.469,0,0.849-0.379,0.849-0.847V58.841c0-0.468-0.38-0.847-0.849-0.847h-29.94c-0.469,0-0.849,0.379-0.849,0.847V78.747z"/>
<circle fill="none" stroke="#FFFFFF" stroke-miterlimit="10" cx="128.627" cy="81.364" r="3.233"/>
<circle fill="none" stroke="#FFFFFF" stroke-miterlimit="10" cx="121.297" cy="57.211" r="3.233"/>
<path fill="none" stroke="#FFFFFF" stroke-width="2" stroke-miterlimit="10" d="M115.903,104.728c0,0-3.344-4.832-1.646-13.502
	c1.395-1.576,14.561-1.414,14.561-1.414"/>
<text transform="matrix(0.9646 -0.2638 0.2638 0.9646 121.2959 131.7061)" fill="#FFFFFF" font-family="'HelveticaNeue-CondensedBlack'" font-size="19.6228">REVEAL-CK</text>
</svg>
